
<svg width="32" height="32" viewBox="0 0 32 32" fill="none" xmlns="http://www.w3.org/2000/svg">
  <!-- Background circle with gradient -->
  <circle cx="16" cy="16" r="15" fill="url(#gradient1)" stroke="#00f5c3" stroke-width="2"/>
  
  <!-- Tree/leaf icon representing nature/Amazon -->
  <path d="M16 6c-2 0-4 1.5-4 3.5v1c0 2 2 3.5 4 3.5s4-1.5 4-3.5v-1c0-2-2-3.5-4-3.5z" fill="#00f5c3"/>
  <path d="M16 14c-1.5 0-3 1-3 2.5v1c0 1.5 1.5 2.5 3 2.5s3-1 3-2.5v-1c0-1.5-1.5-2.5-3-2.5z" fill="#4ade80"/>
  <path d="M16 20c-1 0-2 0.5-2 1.5v1c0 1 1 1.5 2 1.5s2-0.5 2-1.5v-1c0-1-1-1.5-2-1.5z" fill="#22c55e"/>
  
  <!-- Token symbol "$" -->
  <path d="M15 24v2h2v-2h1c1.1 0 2-0.9 2-2s-0.9-2-2-2h-2v-1h3v-1h-2v-2h-2v2h-1c-1.1 0-2 0.9-2 2s0.9 2 2 2h2v1h-3v1h2z" fill="#00f5c3" opacity="0.8"/>
  
  <!-- Gradient definitions -->
  <defs>
    <linearGradient id="gradient1" x1="0%" y1="0%" x2="100%" y2="100%">
      <stop offset="0%" style="stop-color:#1e293b;stop-opacity:1" />
      <stop offset="50%" style="stop-color:#7c3aed;stop-opacity:1" />
      <stop offset="100%" style="stop-color:#1e293b;stop-opacity:1" />
    </linearGradient>
  </defs>
</svg>
