<svg xmlns="http://www.w3.org/2000/svg" version="1.0" viewBox="0 0 1772 1080"><path fill="#004000" fill-opacity=".1" d="M977.1 244.6c0 1.1.3 1.4.6.6.3-.7.2-1.6-.1-1.9-.3-.4-.6.2-.5 1.3M903 268.5c1.9 1.9 3.6 3.5 3.9 3.5s-1-1.6-2.9-3.5-3.6-3.5-3.9-3.5 1 1.6 2.9 3.5M756.2 270c0 1.4.2 1.9.5 1.2.2-.6.2-1.8 0-2.5-.3-.6-.5-.1-.5 1.3m86 10.5c0 1.6.2 2.2.5 1.2.2-.9.2-2.3 0-3-.3-.6-.5.1-.5 1.8m66 0c0 1.6.2 2.2.5 1.2.2-.9.2-2.3 0-3-.3-.6-.5.1-.5 1.8m-126.3 4.2c-1.3 1.6-1.2 1.7.4.4s2.1-2.1 1.3-2.1c-.2 0-1 .8-1.7 1.7m162.1-1.4c0 .2 1.5 1.6 3.3 3.3l3.2 2.9-2.9-3.3c-2.8-3-3.6-3.7-3.6-2.9M908.3 294c0 4.1.2 5.8.4 3.7.2-2 .2-5.4 0-7.5-.2-2-.4-.3-.4 3.8m61.6-2.3c-1.3 1.6-1.2 1.7.4.4.9-.7 1.7-1.5 1.7-1.7 0-.8-.8-.3-2.1 1.3M738.5 304c1 1.1 2 2 2.3 2s-.3-.9-1.3-2-2-2-2.3-2 .3.9 1.3 2m16.5 1.4c0 .2.8 1 1.8 1.7 1.5 1.3 1.6 1.2.3-.4s-2.1-2.1-2.1-1.3m245.4 2.8-1.9 2.3 2.3-1.9c2.1-1.8 2.7-2.6 1.9-2.6-.2 0-1.2 1-2.3 2.2m-33 9.8c0 5.2.1 7.4.3 4.7.2-2.6.2-6.8 0-9.5-.2-2.6-.3-.4-.3 4.8m-103.5.7c-1.3 1.6-1.2 1.7.4.4.9-.7 1.7-1.5 1.7-1.7 0-.8-.8-.3-2.1 1.3m14 1-2.4 2.8 2.8-2.4c1.5-1.4 2.7-2.6 2.7-2.8 0-.8-.8-.1-3.1 2.4m111.2 3.9c0 1.1.3 1.4.6.6.3-.7.2-1.6-.1-1.9-.3-.4-.6.2-.5 1.3m-214 1c0 1.1.3 1.4.6.6.3-.7.2-1.6-.1-1.9-.3-.4-.6.2-.5 1.3"/><path fill="#004000" fill-opacity=".2" d="M879.1 205.6c0 1.1.3 1.4.6.6.3-.7.2-1.6-.1-1.9-.3-.4-.6.2-.5 1.3m-78.3 1.1c.7.3 1.6.2 1.9-.1.4-.3-.2-.6-1.3-.5-1.1 0-1.4.3-.6.6m51.6 24.3c0 9.6.2 13.6.3 8.7.2-4.8.2-12.6 0-17.5-.1-4.8-.3-.8-.3 8.8m46 2c0 8 .2 11.2.3 7.2.2-3.9.2-10.5 0-14.5-.1-3.9-.3-.7-.3 7.3"/><path fill="#004000" fill-opacity=".3" d="M797.4 246c0 6.9.1 9.7.3 6.2.2-3.4.2-9 0-12.5-.2-3.4-.3-.6-.3 6.3m128.7-6.4c0 1.1.3 1.4.6.6.3-.7.2-1.6-.1-1.9-.3-.4-.6.2-.5 1.3"/><path fill="#004000" fill-opacity=".4" d="M862.3 238c0 2.5.2 3.5.4 2.2.2-1.2.2-3.2 0-4.5-.2-1.2-.4-.2-.4 2.3m-65 24c0 2.5.2 3.5.4 2.2.2-1.2.2-3.2 0-4.5-.2-1.2-.4-.2-.4 2.3"/><path fill="#004000" fill-opacity=".5" d="M891.8 193.7c.7.3 1.6.2 1.9-.1.4-.3-.2-.6-1.3-.5-1.1 0-1.4.3-.6.6M862.3 229c0 3 .2 4.3.4 2.7.2-1.5.2-3.9 0-5.5-.2-1.5-.4-.2-.4 2.8"/><path fill="#004000" fill-opacity=".9" d="M822.9 228.7c-1.3 1.6-1.2 1.7.4.4.9-.7 1.7-1.5 1.7-1.7 0-.8-.8-.3-2.1 1.3m150 7c-1.3 1.6-1.2 1.7.4.4.9-.7 1.7-1.5 1.7-1.7 0-.8-.8-.3-2.1 1.3"/><g fill="#004000" stroke-width="0"><path d="M852.5 190c-8.6 3.5-9.7 15.7-2 21.8 2.5 2 2.5 2 2.5 18.7 0 10.3.4 17.5 1.1 18.8.6 1.2 5.4 6.2 10.5 11.2l9.4 9v13.2c0 7.3-.4 13.3-.8 13.3s-2.3-1.6-4.2-3.5c-3-3.1-3.2-3.7-2.2-6 1.7-3.7 1.5-10.2-.4-13.1-4.1-6.1-13.2-7.3-18.8-2.3-8.1 7-5 18 5.8 21.1 2.9.8 6.3 3.3 11.9 8.7 4.2 4.1 7.7 8.3 7.7 9.2 0 1-4.3 5.7-9.7 10.6-9.3 8.7-9.6 9.1-10.4 14.4-.4 3-.8 9.1-.8 13.6-.1 4.6-.5 8.3-.9 8.3-.5 0-3.7-2.6-7-5.8l-6.2-5.7v-96.1l3-2.9c3.5-3.4 4.6-8 3.1-12.8-1.8-5.2-5.2-7.9-11.1-8.5-4.8-.4-5.2-.3-9 3.6-3.6 3.6-4 4.5-4 9 0 4.7.3 5.3 4.5 9l4.5 4v95.9l3 4.1c1.6 2.2 6.7 7.4 11.4 11.4l8.5 7.3.1 23.6c0 13 .3 26.4.6 29.8.5 4.5.4 6.1-.6 6.1-2.5 0-13-7.3-13.5-9.4-.3-1.2-.6-10.8-.7-21.5l-.3-19.4-10.3-9.6-10.2-9.6v-6.1c0-4.6-.5-6.8-2-8.6-4.6-5.9-14.4-6.3-19.2-.8-2.3 2.5-2.8 4-2.8 8.1 0 4.5.4 5.5 3.4 8.5 2.9 2.9 4.1 3.4 8.1 3.4 4.3 0 5.2.5 11.8 6.2 10.6 9.3 12.4 11.5 12.9 14.9.9 5.8-.4 27.9-1.6 27.9-.6 0-3.1-1.4-5.6-3-8.5-5.7-15-3.4-15 5.1 0 5.4 2.4 8.1 17 18.4 5.2 3.7 10.5 7.7 11.8 8.8 4.2 3.8 2 10.7-3 9.3-2.3-.6-30.5-21.1-35.3-25.6l-2.5-2.3v-45.6l-4.5-3.8-4.5-3.7v-40.4l9.7-9.1c9.6-9 9.7-9.1 14.8-9.1 6.3 0 9.8-2.3 11.5-7.6 4.3-12.8-11.8-22.6-21.1-12.8-2 2.1-2.4 3.6-2.5 9.1-.1 6.6-.1 6.6-5.2 11.5-2.8 2.6-5.5 4.8-6.1 4.8-.7 0-1.1-3.8-1.1-10.8v-10.7l8.9-8.6c12.9-12.5 12.6-11.6 12.3-35-.3-18.8-.2-19.6 1.9-21.5 3.2-2.9 4.9-6.8 4.9-11.4 0-3.2-.7-4.8-3.4-7.8-3.2-3.4-3.9-3.7-8.9-3.7-4.5 0-6 .5-8.1 2.4-6 5.6-5.5 14.8 1 19.7l3.4 2.6v38.5l-9.5 9.4c-5.3 5.1-9.8 10.4-10.1 11.6-.9 3.3-2.4 2.9-7.4-2.2l-4.5-4.6v-27.5l3.8-3.7c3.3-3.4 3.7-4.3 3.7-8.8 0-2.9-.7-6-1.6-7.5-3.4-5.1-10.7-6.8-16.4-3.9-4.3 2.2-6 5.3-6 10.7 0 4.1.5 5.4 3.5 8.7l3.5 3.8v12.9c0 7.1.4 14.5 1 16.4.6 2.3 3.8 6.3 9.5 12l8.5 8.5v33.7c0 27-.3 33.8-1.3 33.8-.7 0-3.1-1.8-5.2-4l-4-4.1-1-25.5-1-25.5-9.8-9.6-9.7-9.5.6-4.8c.5-4 .2-5.5-1.6-8.6-5.1-8.1-17.4-8.4-21.5-.4-2.5 4.8-1.9 10 1.5 14.2 2.7 3.3 3.8 3.8 8.9 4.4 5.7.6 6.1.8 14.2 9l8.4 8.4.5 24.9c.6 28.4-.7 24.3 11.9 37.3l7.5 7.7.4 12.2c.4 10.5.3 12-1.1 11.7-.8-.1-7.6-6.1-15.1-13.1L745 385.8v-19.6c-.1-13.6-.4-20.4-1.3-21.9-.7-1.2-4.7-5.4-9-9.3l-7.7-7.2V322c0-5.2-.4-6.4-3.1-9.4-5.1-5.8-12.6-6.1-18-.6-2.5 2.4-2.9 3.6-2.9 8.2.1 6 1.6 8.5 7 11.3 2.2 1.1 4.5 1.5 6.9 1.1 3.3-.5 3.9-.1 11.3 7.2l7.8 7.8v13.7c0 7.5-.4 13.7-.8 13.7s-3.6-2.9-7.2-6.5c-6.2-6.3-6.4-6.5-6.1-11.4.4-8.9-4.3-14.4-12.3-14.4-9.9 0-15.7 9.8-10.6 18 2.4 3.9 6.7 6.3 11.6 6.3 3.4 0 5.1 1.4 25.8 21.7 12.2 11.9 25.7 25.2 30.1 29.5l8 7.8.5 12.4c.6 15.2.3 14.7 16.6 27.4 6.5 5 15.2 11.7 19.1 14.8 4 3.1 9.1 7.6 11.3 10 3.9 4.3 4 4.5 4 11.9 0 4.1-.3 7.5-.8 7.5-.4 0-10-7-21.2-15.5-19.3-14.6-20.5-15.6-20.2-18.4.5-4.3-2.4-9.7-6.4-12.2-6.7-4.1-17.2.4-18.9 8-.8 3.6 1.4 8.8 5 12.1 2.4 2.2 3.5 2.5 9.5 2.3l6.9-.2 22.8 17.3 22.8 17.3.3 8.8c.2 7 0 8.6-1.1 8.2-1.4-.5-29.1-20.7-39.2-28.6-3.3-2.6-11.8-8.9-18.8-14-7-5.2-13.4-10.6-14.1-12-1-1.8-1.5-9.1-1.8-25.1-.4-18.4-.8-23.1-2.1-25.7-.9-1.7-6.3-7.1-11.9-12-14.8-12.8-13.8-11.5-13.8-18.2 0-5.3-.3-6.3-3-9-3.3-3.2-8.4-4.7-12.6-3.7-3.4.9-8.1 5.6-9 9.1-2 8.1 6.1 16.4 14.9 15.2l4.3-.6 12.2 11.7 12.2 11.7v11.2c0 6.7-.4 11.3-1 11.3-.5 0-3.5-2.6-6.5-5.7-5.5-5.6-5.6-5.7-5-10.2.7-5.8-1.7-10.7-6.6-13.3-6.7-3.6-14-1.1-17 5.8-2.5 5.6-1.6 9.5 3.2 13.9 3.4 3.1 4.6 3.5 9.2 3.5h5.2l9.2 9.2 9.2 9.3.7 6.9c.6 5.6 1.2 7.5 3.7 10.3 2.6 3 35 27.6 64.6 49.2 16.9 12.3 15.1 8.1 15.1 36 0 18.1.3 24.2 1.3 24.8 1.8 1.2 35.9 1.5 37.7.4 1.3-.9 1.5-11.1 1.8-79.6l.3-78.6-3.1-2.5-3-2.6V334.6l10.5-9.9c8.4-8 10.7-10.8 11.6-14.1 1.5-5.3.2-40.8-1.5-45.1-.7-1.7-5.1-6.4-9.7-10.5s-8.7-8-9.1-8.5c-.4-.6-.8-8.1-.8-16.7 0-15.1.1-15.7 2.3-17.5 3.9-3.1 5.7-6.6 5.7-10.9 0-8.6-9.5-14.8-17.5-11.4"/><path d="M887.4 195c-2.6 1-6.2 5.5-7.1 8.8-.9 3.8 1.4 9.7 5.2 13.1l3.5 3v33.4l10 9.7 10 9.7V317l-5.4 5.9c-3 3.2-6 6.9-6.8 8.2-1 1.8-1.4 10-1.6 35.2-.2 21.5-.7 32.7-1.4 32.5-2.7-.9-10.8-8.6-11.7-11.2-.6-1.6-1.1-8.1-1.1-14.4v-11.4l4.1-3.7c3.7-3.3 4.2-4.2 4.3-8.2.2-8.5-4.2-12.9-12.8-12.9-5.4 0-9.9 3.3-11.6 8.5q-2.25 6.9 4.5 13.5l3.5 3.4v13.2c0 7.3.4 14.4.9 15.7.6 1.4 5.5 6.5 11 11.3l10.1 8.9v16.2l-6.2 4.3c-3.5 2.4-7.5 5.5-9 6.8l-2.8 2.6v78.1c0 59.4.3 78.4 1.2 79.3.8.8 6.5 1.2 18.9 1.2 14.8 0 18-.3 19.3-1.6 1.4-1.3 1.6-5 1.6-24.8 0-17.1.3-23.6 1.3-24.8 1-1.3 10.6-8.5 44.2-33.3 24.8-18.2 34.4-25.7 35.7-27.7.8-1.3 1.8-5.4 2.1-9.3l.7-6.9 9.7-9.9c9.5-9.5 9.9-9.8 13.4-9.2 7.3 1.2 14.9-4.8 14.9-11.8 0-9.5-12.3-16.2-19.4-10.6-4 3.2-5.9 7.6-5.3 12.5.4 4.2.3 4.5-5.4 9.9-3.1 3-6.2 5.5-6.8 5.5-1.9 0-1.4-18.9.7-23 .9-1.9 6.8-7.8 12.9-13.2 10-8.7 11.6-9.7 14.2-9.2 6.4 1.3 14.1-3.9 15.6-10.5.4-2 0-4.2-1.4-7-6.2-12-23-8-23.1 5.5 0 2.7-.6 5.8-1.2 6.6-.7.9-5.9 5.7-11.5 10.5-16 13.9-14.7 10.6-15.5 39.2-.6 18.1-1.1 24.9-2.1 26.5-1.5 2.2-6.4 6.1-30.2 23.7-7.7 5.6-20.2 14.9-27.8 20.6S919.5 538 918.9 538c-1.4 0-1.1-15.2.4-17.1.7-.8 5-4.4 9.7-7.9s14.7-11 22.2-16.7l13.7-10.3 5.3.5c6.3.7 10.7-1.5 13.4-6.6 3.3-6.4-.6-15-7.7-16.9-5.6-1.5-9.3-.5-12.9 3.6-2.9 3.4-3.5 5.3-3.1 10.6.2 2.3-2 4.3-19.6 17.5-10.9 8.1-20.4 14.9-21 15.1-1 .3-1.3-1.6-1.3-7 0-11.4.9-12.5 25.5-31 7.8-5.8 16.6-12.9 19.8-15.8l5.7-5.2v-19.6l17.3-16.9c47.7-46.6 44.3-43.6 48.1-42.9 4.8.9 9.8-1.4 12.4-5.7 2.6-4 2.7-6.5.8-11.2-3.5-8.2-14.1-9.9-20.3-3.1-2.9 3.1-3.3 4.3-3.3 8.9 0 5.2-.1 5.3-7 12.2-3.8 3.8-7.2 6.6-7.5 6.3-1.2-1.1-1.8-14.6-1.1-23.4l.7-8.9 7.7-7.3c6.3-5.9 8.1-7.2 10.1-6.7 3.4.9 8.7-1.2 11.6-4.6 3-3.6 3.5-11.1.9-14.7-3.7-5.3-13-6.9-17.9-3-3.7 2.9-5.3 7.2-4.7 12.5.5 4.5.5 4.5-7.7 12.7-5.2 5.2-8.5 9.4-9.1 11.6-.6 1.9-1 12.5-1.1 23.5v20l-14 13.4c-7.7 7.4-14.2 13.1-14.6 12.8-.7-.8-.8-3.8-.5-18.5l.2-11.3 8.4-8.7c4.6-4.8 8.8-9.7 9.5-10.9.7-1.4 1.1-10 1.1-25.6v-23.5l8.9-8.5c8.3-7.9 9.4-8.6 14.3-9.2 4-.6 6-1.5 8.5-4 2.9-2.9 3.3-4 3.3-8.4s-.4-5.5-3.4-8.4c-4.4-4.5-8.6-5.3-14.2-2.7-5.6 2.4-7.9 7.1-7 14.1l.6 4.7-6.7 6.3c-9.9 9.4-12.3 12.2-12.8 14.4-.2 1.1-.6 12.2-.7 24.7l-.3 22.7-5.5 5.6c-3 3-5.8 5.5-6.2 5.5s-.8-15-.8-33.4v-33.5l9.4-9.3 9.3-9.3.7-16.2.7-16.2 3.4-3.4c4.2-4.2 5.1-7.5 3.4-12.9-3-9.1-13.4-11.6-20.5-4.7-6 5.8-5.6 12.7 1.2 18.8 3.4 3.1 3.4 3.2 3.4 11.9 0 15.5-.7 18.4-5.6 23.8-3.7 4-4.6 4.5-5.9 3.4-.8-.7-1.5-1.8-1.5-2.4s-4.3-5.5-9.5-10.9-9.7-10.8-10.1-12.1c-.3-1.3-.4-9.9-.2-19.2l.3-16.9 3.7-3.7c4.6-4.8 5.5-8.6 3.1-13.5-2.5-5.1-6.3-7.6-11.7-7.7-5.6-.1-9.6 2.6-11.5 8.1-1.9 5.2-.9 8.8 3.7 13.2l3.7 3.6.5 21.2.5 21.1 9.8 10 9.7 10.1v11c0 6.1-.3 11.1-.8 11.1-.4 0-3.1-2.1-6-4.6l-5.3-4.7.6-5.2c1.2-9-3.4-14.7-11.9-14.7-9.8 0-15.6 9.5-11.1 18.2 2.2 4.2 5.3 6 10.5 6 4.4 0 4.8.3 14.3 9.8l9.7 9.7V371l-2.6 1.7c-3.8 2.4-5.4 7.1-5.4 15.3 0 4.3-.4 7-1.1 7-.5 0-3.5-2.3-6.5-5.1-5.2-5-5.4-5.4-5.4-10.6 0-6.4-2-10-6.7-11.9-6.9-3-13.6-.5-16.7 6.1-2.4 5-1.5 9.3 3 13.6 3.1 3 4.2 3.4 8.9 3.5 5.4.1 5.6.2 14.8 8.3 8.5 7.4 9.5 8.6 10 12.4 1.1 7.8-.2 12.5-4.2 15.8-4.7 3.8-27.8 20.9-31.4 23.2-5 3.2-9.9.1-8.2-5.2.3-1 6.7-6.4 14.3-11.9 17.2-12.5 17.6-13 16.9-18.3s-3.1-7.9-7.4-7.9c-3.4 0-7.3 2.1-17 9.3-8.6 6.4-8.5 6.6-8.1-21.8l.3-24.5 11-11 11-11h5.4c4.9 0 5.7-.3 9.2-3.9 3.2-3.2 3.9-4.6 3.9-7.7 0-10.4-10.8-16.7-19.1-11.1-4.8 3.2-6.1 6.2-5.4 12.4l.5 5.1-7.4 6.6c-4 3.6-7.6 6.6-7.9 6.6-1.3 0-1.9-7.4-1.2-14.5.6-6.8 1-7.8 4.3-11.2 2-2.1 4.8-5.1 6.2-6.6l2.5-2.9.5-35.1.5-35.2 3.8-3.7c3.1-3 3.7-4.3 3.7-7.7 0-5.7-2.2-9.5-6.6-11.6-8.7-4.1-18.4 1.7-18.4 11.1 0 4.1.5 5.1 4 8.6 3.3 3.3 4 4.7 4 7.9 0 2.2-.4 3.9-.8 3.9s-2.9-2.1-5.5-4.7l-4.7-4.6v-15.8c0-14.8.1-15.9 2-16.9 7-3.8 6.3-17.5-1.2-21.6-2.6-1.5-8.3-1.7-11.4-.4"/><path d="M711.2 651.7c-13.8 21.5-18.1 28.1-27.9 43.8-5.5 8.8-13.7 21.8-18.3 29q-21 32.85-21 33.9c0 .4 4.4.5 9.8.4l9.7-.3 4-6c2.2-3.3 6.4-9.7 9.3-14.3l5.2-8.2h84l4.6 7.2c2.6 4 6.7 10.6 9.3 14.5l4.6 7.3h9.8c5.3 0 9.7-.2 9.7-.5s-4.3-7.4-9.6-15.8-20.3-32.1-33.2-52.7-25.3-40.1-27.4-43.3l-3.9-5.7h-11.7zm20.9 24c4 6.5 10.5 17.1 14.6 23.6 4 6.4 7.3 12.2 7.3 12.7 0 .6-11 1-30.1 1-28.6 0-30.1-.1-29.7-1.8.9-3.4 29-47.2 30.3-47.2.2 0 3.6 5.3 7.6 11.7m113.4-33.6c-7.2 1.1-15.7 5.2-19.2 9.4-1.5 1.6-3.7 5.4-5.1 8.3-2 4.5-2.4 6.8-2.4 15.1.1 13.7 1.3 17.5 7.5 23.6 9.3 8.9 10.9 9.2 72.7 9.8 32 .4 33.4.6 37.4 6 2.8 3.8 3 16.5.3 21.5-3.6 6.6-4.5 6.7-49.2 6.7-22-.1-41.2-.4-42.6-.8-3.7-.9-7.4-5-8.7-9.5l-1.2-3.9-7.7-.6c-4.2-.3-8.1-.3-8.6 0-1.2.7.1 8.9 2.2 13.8 2.5 5.5 9.6 11.8 16.7 14.6 5.8 2.3 6.7 2.3 44.9 2.7 43.9.4 50.5-.1 59.9-5.1 10.4-5.5 15.2-16.3 14.4-31.8-.7-11.1-4-17.8-11.1-22.6-9.3-6.2-11-6.5-56.7-7.2-39.5-.7-41.7-.8-45.6-2.8-5.1-2.7-6.4-5.6-6.4-14.7 0-5.9.4-7.9 2.3-10.7 4.1-6 3.2-5.9 49.9-5.7l42.6.3 2.7 2.5c1.4 1.3 3.1 4.4 3.7 6.7l1 4.3h18l-.7-4.8c-2.1-14.5-11.3-23.3-26.2-25.3-8.7-1.1-76.9-.9-84.8.2m192.8 2.3c-1.5 1.9-6.4 9.2-10.7 16.3-4.4 7-13.4 21.3-20.1 31.8-6.8 10.4-15.1 23.5-18.5 29-3.5 5.5-10.1 16-14.7 23.3-4.5 7.3-8.3 13.4-8.3 13.7s4.2.5 9.4.5h9.3l9.4-14.3 9.4-14.2h84.8l8.7 14 8.8 14 10.2.3c8.9.2 10.2.1 9.6-1.3-.3-.8-3.7-6.4-7.4-12.3-3.8-5.9-11.2-17.5-16.4-25.7-26.3-41.7-47.3-74.2-49.1-76.3-1.6-1.7-3.1-2.2-6.8-2.2-4.2 0-5.1.4-7.6 3.4m9.8 21.8c.7 1.3 5.7 9.6 11.3 18.6 16.1 25.8 16.6 26.7 16.6 27.4 0 .5-13.7.8-30.5.8s-30.5-.3-30.5-.6c0-.4 3.5-6.3 7.8-13.1 4.2-6.8 10.4-16.8 13.7-22.2 8.7-14.3 9.5-15 11.6-10.9m235.7-18.4c-2.6 3.7-7.6 10.7-11.1 15.7-3.5 4.9-13.1 18.7-21.5 30.5-23.5 33.5-26.2 37.1-27.1 36.5-.5-.3-4-4.9-7.9-10.3-15.1-21.2-46.1-65.1-50.3-71.2l-4.5-6.5-7.5-.3-7.6-.3-.6 15.8c-.4 8.7-.7 35-.7 58.5V759h18.3l-.3-27.8c-.5-37.6-.2-54.2.9-54.2.8 0 19.3 26.1 45.2 63.7l8.4 12.2h14l7.8-11.2c4.3-6.2 15.3-22 24.4-35.2 19.5-28.3 21.1-30.5 22.4-30.5.5 0 .9 16 .9 41.5V759h16V641h-14.5zM447 700.5V759h17V642h-17zm50.7-43.8c-.4 8.1-.4 34.5 0 58.7l.6 43.9 51.1-.6 51.1-.5 7.3-2.5c11.7-4 17.4-9.4 21.4-20.3 2-5.5 2.2-7.6 2.2-34.4.1-27.2 0-28.8-2.2-35.2-3.1-8.8-6.7-13.6-13.7-17.7-9.6-5.8-12.6-6.1-67.6-6.1h-49.6zm102.8 2.4c2.2.6 5.6 2.8 7.6 4.8 5.5 5.4 6.2 10.5 5.7 40-.3 21.4-.6 25.1-2.2 28.4-2.7 5.5-8.2 8.2-19.2 9.6-9.5 1.2-67.9 1.5-73.3.5l-3.1-.7v-82.6l2.3-.4c5.2-1 78.3-.6 82.2.4"/><path d="M445 806c0 12.3.1 13 2 13s2-.7 2-13-.1-13-2-13-2 .7-2 13"/></g><path fill="#004000" fill-opacity=".8" d="M847.9 192.7c-1.3 1.6-1.2 1.7.4.4.9-.7 1.7-1.5 1.7-1.7 0-.8-.8-.3-2.1 1.3"/><path fill="#004000" fill-opacity=".7" d="M888.4 235.5c0 8.8.2 12.3.3 7.7.2-4.6.2-11.8 0-16-.1-4.2-.3-.5-.3 8.3"/><path fill="#004000" fill-opacity=".6" d="M905.1 206.6c0 1.1.3 1.4.6.6.3-.7.2-1.6-.1-1.9-.3-.4-.6.2-.5 1.3M862.3 219c0 3 .2 4.3.4 2.7.2-1.5.2-3.9 0-5.5-.2-1.5-.4-.2-.4 2.8"/></svg>
